<svg width="21" height="21" viewBox="0 0 21 21" fill="none" xmlns="http://www.w3.org/2000/svg">
<g clip-path="url(#clip0_1_12)">
<path d="M9.94068 0.00430489C7.44489 0.169243 5.23522 1.11337 3.3485 2.82247C2.45613 3.63295 1.70824 4.63679 1.119 5.8198C0.609076 6.84355 0.37961 7.50331 0.169975 8.54697C0.0424937 9.18966 0 9.66457 0 10.4665C0 11.2884 0.0396607 11.7234 0.184139 12.4714C0.762053 15.4289 2.67427 18.0736 5.36836 19.632C6.66867 20.3827 7.86132 20.7751 9.37693 20.9486C10.2636 21.0481 11.5328 20.9998 12.4336 20.832C14.0484 20.5277 15.6575 19.7628 17.0824 18.6196C17.5159 18.2726 18.3063 17.4764 18.6632 17.0214C19.0457 16.5379 19.4933 15.8668 19.7539 15.3862C21.1023 12.9036 21.3715 9.91482 20.4876 7.28149C20.1732 6.34589 19.6519 5.31645 19.057 4.45764C17.3459 1.99209 14.411 0.288681 11.4563 0.0469608C11.0398 0.0128365 10.1843 -0.0099144 9.94068 0.00430489ZM11.5243 1.02522C12.6688 1.15887 13.9464 1.56837 14.9266 2.11153C16.5244 2.99879 17.8303 4.25857 18.6717 5.73164C19.836 7.76493 20.1986 9.83803 19.7992 12.204C19.6264 13.2278 19.3148 14.1094 18.7907 15.0563C18.3233 15.9038 17.9238 16.4384 17.2496 17.1323C16.428 17.9769 15.6235 18.5655 14.5867 19.0888C13.5413 19.6177 12.4223 19.9305 11.2155 20.0358C10.8302 20.067 10.4364 20.0727 10.4364 20.0471C10.4364 19.9789 11.1843 19.177 12.2013 18.1532C13.2184 17.1294 13.6263 16.6915 14.1164 16.1C15.0144 15.0165 15.6462 14.0041 15.8841 13.2648L15.9521 13.06L16.1646 12.9832C16.496 12.8666 16.5159 12.8467 16.5385 12.6363C16.5499 12.5368 16.5442 12.3661 16.5272 12.2581C16.5017 12.096 16.5074 11.9396 16.5555 11.4334C16.6405 10.4921 16.6263 9.90344 16.5074 9.52806C16.3374 8.99059 15.6887 7.50615 15.4988 7.21893C15.428 7.11087 15.2694 6.92602 15.1447 6.80658L14.9209 6.58761L15.0937 6.52789C15.3884 6.42836 15.5867 6.24636 15.6717 5.99042C15.734 5.81127 15.7142 5.53258 15.6292 5.36195C15.4677 5.03776 15.0966 4.76192 14.6915 4.66808C14.5187 4.62826 14.513 4.62826 14.53 4.68229C14.547 4.73064 14.5328 4.73632 14.3855 4.73632C14.2297 4.73632 14.224 4.73917 14.2722 4.79036C14.3175 4.8387 14.3175 4.84439 14.2552 4.86429C14.1957 4.8842 14.1985 4.88704 14.2835 4.89842C14.3629 4.9098 14.4167 4.96383 14.3459 4.96383C14.3317 4.96383 14.292 5.01501 14.2609 5.07758C14.19 5.21692 14.1164 5.26526 13.9407 5.29086C13.8643 5.30223 13.7963 5.32783 13.7906 5.34489C13.7821 5.3648 13.7991 5.4302 13.8246 5.48992C13.8671 5.5923 13.8671 5.60367 13.8246 5.63495C13.7991 5.65202 13.7793 5.68614 13.7793 5.71174C13.7793 5.73733 13.7424 5.80274 13.6943 5.85392C13.649 5.90796 13.6093 5.96483 13.6093 5.97621C13.6121 5.99043 13.6971 6.05867 13.8019 6.12977C13.9634 6.23783 13.9889 6.26911 13.9804 6.32883C13.9747 6.36864 13.9577 6.5023 13.9379 6.62743L13.9068 6.85493L13.8076 6.84071C13.5725 6.80658 13.3968 6.83218 13.1419 6.94024C12.8926 7.04262 12.8812 7.04546 12.6291 7.02555C12.3798 7.00849 12.3713 7.00565 12.3203 6.91749C12.292 6.8663 12.2013 6.74402 12.122 6.64165C11.9804 6.46249 11.9719 6.43974 11.8926 6.08711C11.8416 5.84255 11.8076 5.5923 11.7962 5.34773C11.7792 4.97804 11.7594 4.89558 11.6518 4.77614C11.6149 4.73633 11.5299 4.43204 11.3883 3.82348C11.2721 3.33151 11.1192 2.69735 11.0483 2.41013L10.9209 1.88972L10.9605 1.68497C10.9804 1.57122 11.0087 1.36931 11.0172 1.22997C11.0398 0.939901 10.986 0.962652 11.5243 1.02522ZM9.01999 1.13328C9.01999 1.13897 8.87267 1.26409 8.6942 1.41197C8.51289 1.557 8.37975 1.68212 8.39391 1.68781C8.40808 1.6935 8.65454 1.61956 8.94066 1.52572C9.46758 1.35225 9.87269 1.23281 9.88686 1.24703C9.89252 1.25272 9.55541 1.39775 9.13897 1.57406C6.91513 2.50681 5.70548 3.02154 5.41086 3.15519C5.28621 3.21207 5.18139 3.25472 5.17856 3.24904C5.17289 3.24335 5.26638 3.18363 5.38819 3.11538C5.50718 3.04713 5.91795 2.80541 6.30039 2.58075C7.816 1.67928 8.10496 1.52287 8.6942 1.26409C9.02565 1.11622 9.01999 1.11906 9.01999 1.13328ZM11.0144 3.01585C11.1192 3.43673 11.2523 3.9941 11.3118 4.25004L11.4195 4.71926L11.343 4.78467C11.2552 4.85861 11.2155 4.98373 11.1617 5.37901C11.1277 5.61789 11.1305 5.6577 11.1787 5.80842C11.207 5.89942 11.2806 6.1838 11.3458 6.44258C11.4761 6.97721 11.5554 7.14499 11.7906 7.40093C11.9464 7.56871 11.9577 7.58577 12.0172 7.85593C12.054 8.0095 12.1305 8.33084 12.19 8.56972L12.2977 9.00197L12.1249 8.84556C11.7934 8.54697 11.258 8.1204 11.122 8.055C10.9124 7.94693 10.8302 7.94125 10.5838 8.02087C10.4648 8.06068 10.3486 8.10334 10.3288 8.11471C10.309 8.12893 10.0767 8.57256 9.8132 9.10434C9.55257 9.63328 9.28345 10.1537 9.21829 10.2618L9.10214 10.4523L9.17863 10.5547C9.26928 10.6713 9.26078 10.6826 9.03415 10.7509C8.75369 10.8334 8.49306 10.8789 8.26077 10.8789C8.12479 10.8789 7.98597 10.8959 7.92931 10.9187C7.76784 10.9869 7.68568 11.2429 7.79617 11.3395C7.8245 11.3651 7.94914 11.3993 8.09929 11.4163C8.58938 11.4789 8.61771 11.4874 8.82451 11.7092C9.00582 11.9026 9.01432 11.9054 9.11914 11.8855C9.18713 11.8742 9.26928 11.8258 9.34577 11.749C9.45059 11.6495 9.48175 11.5926 9.5554 11.3481C9.60356 11.1917 9.66589 11.0296 9.69422 10.9869C9.86419 10.7281 10.884 9.64466 10.9067 9.70153C10.9152 9.7186 11.0285 9.88922 11.1645 10.0826C11.394 10.4153 11.4053 10.4381 11.3543 10.4722C11.326 10.4921 11.1022 10.64 10.8614 10.7992C10.3515 11.1319 9.89252 11.459 9.47325 11.7889C9.22395 11.9822 9.16446 12.0448 9.11064 12.1671C8.96333 12.4913 8.37691 13.4183 7.99164 13.9331C7.8245 14.1606 7.8245 14.1606 7.86982 14.2402C7.91798 14.317 7.91515 14.3198 7.85283 14.3454C7.816 14.3596 7.63753 14.3909 7.45339 14.4165C7.26641 14.4421 7.10494 14.4677 7.09077 14.4762C7.02845 14.516 6.8953 15.3549 6.94629 15.4061C7.00012 15.4602 8.05113 15.3492 8.13328 15.281C8.18711 15.2383 8.29193 15.0279 8.35425 14.8374C8.39108 14.7208 8.41091 14.6952 8.43924 14.7179C8.46757 14.7407 8.54122 14.681 8.75369 14.4677C8.9095 14.3141 9.15596 14.0923 9.30611 13.9729C9.59223 13.7454 9.70555 13.5946 9.96901 13.0998C10.1022 12.8496 10.0257 12.8979 11.394 12.2012L12.2637 11.7576L12.4336 11.8002C12.9974 11.9424 13.5016 11.7178 13.8813 11.1632C13.9549 11.0523 14.0257 10.9642 14.0399 10.9642C14.0796 10.9642 14.0654 11.1206 14.0172 11.2372C13.9917 11.2997 13.9068 11.4874 13.8303 11.6609C13.7113 11.9225 13.6915 11.9908 13.7028 12.0931C13.7453 12.477 14.1759 12.6875 14.5045 12.4827C14.6093 12.4173 14.666 12.3491 14.7736 12.1585C14.8898 11.9566 14.9096 11.8941 14.9124 11.7661C14.9124 11.6552 14.9238 11.6182 14.9549 11.6182C15.0116 11.6182 15.1391 11.3879 15.1391 11.2798C15.1391 11.2087 15.1107 11.1604 15.0088 11.0609C14.8728 10.93 14.513 10.7367 14.2949 10.6798L14.1702 10.6485L14.2212 10.5717C14.4648 10.2049 14.8388 9.55935 15.0314 9.17828L15.2637 8.71475L15.3515 8.86262C15.3969 8.94509 15.4904 9.08159 15.5583 9.16975C15.8643 9.57072 15.8473 9.5366 15.8473 9.72428C15.8473 9.82097 15.8926 10.1736 15.9493 10.5092C16.0654 11.2173 16.0881 11.7035 16.0116 11.877C15.9889 11.9339 15.887 12.0704 15.7906 12.1841L15.6122 12.3917L15.632 12.6079C15.6632 12.9548 15.6802 13.0401 15.7226 13.0401C15.785 13.0401 15.7708 13.0885 15.581 13.5093C15.36 14.0013 15.1476 14.3738 14.7765 14.9142C14.1561 15.8156 13.5441 16.5152 12.0767 18.0025C10.952 19.14 10.4081 19.7201 10.2438 19.959L10.1673 20.067L9.86986 20.05C9.47325 20.0272 8.85001 19.9362 8.48173 19.8481C8.09362 19.7571 7.68002 19.6376 7.64886 19.6064C7.62619 19.5865 7.66869 18.1248 7.70551 17.7181C7.72251 17.5247 7.77634 17.6356 7.1021 16.4697C6.82165 15.9891 6.76782 15.9152 6.74233 15.9578C6.6885 16.0573 6.19841 17.0896 6.02843 17.4679C5.93778 17.6726 5.85846 17.8375 5.85279 17.8347C5.84996 17.829 5.90945 17.6555 5.98311 17.4451C6.29756 16.5806 6.4562 16.0062 6.73949 14.7151C6.82731 14.317 7.01428 13.4866 7.1531 12.8695C7.43356 11.6381 7.52421 11.2144 7.51004 11.203C7.50721 11.1974 7.40806 11.3367 7.29191 11.5073C6.44204 12.7671 5.19839 14.516 5.45618 14.0923C5.73664 13.6259 3.98024 15.0592 5.12473 12.9832C5.64599 12.042 8.17011 9.09581 8.17011 8.97637C8.17011 8.94225 7.70835 9.20103 7.05111 9.59916C6.39104 10.0001 6.15875 10.1594 5.42219 10.7168C4.75929 11.2173 4.6573 11.294 4.82445 11.149C4.8811 11.1007 5.01425 10.9869 5.12473 10.8931C5.23238 10.7964 5.45052 10.6115 5.60633 10.4807C5.85279 10.2731 6.34855 9.8295 7.43072 8.85978C7.57803 8.72612 7.92931 8.41331 8.21261 8.16306C9.16163 7.32131 9.31744 7.17627 9.3401 7.11371C9.41093 6.93171 9.97468 5.14583 9.96618 5.1373C9.95485 5.12592 9.64039 5.36195 8.66587 6.11839C8.09646 6.55918 7.00579 7.38671 5.87545 8.23415C5.30887 8.66072 4.15871 9.50247 3.7791 9.76978C3.26918 10.1281 3.27484 10.1253 3.35417 10.0542C3.84709 9.61907 5.64599 8.21709 8.42507 6.09849C9.50158 5.27664 10.0228 4.87851 10.0483 4.85292C10.0625 4.8387 10.3515 3.67276 10.3515 3.67276C10.3515 3.66423 9.13613 4.17042 7.84433 4.71926C6.9038 5.12023 5.84429 5.58661 4.86977 6.03024C4.40234 6.24352 4.00007 6.42552 3.97741 6.43405C3.88959 6.46533 4.24087 6.26627 4.92643 5.90227C7.23242 4.67092 7.87266 4.3382 9.27778 3.62726L10.5129 3.00163L10.6489 2.58644C10.7311 2.34188 10.7934 2.18831 10.8047 2.21106C10.816 2.23097 10.9124 2.59213 11.0144 3.01585ZM11.6943 5.99896C11.7197 6.10702 11.7339 6.20086 11.7282 6.20655C11.7141 6.22077 11.5979 5.91649 11.5979 5.86246C11.5979 5.82833 11.6291 5.77999 11.6433 5.79705C11.6461 5.79989 11.6716 5.89089 11.6943 5.99896ZM12.6461 7.80759C12.8246 7.84171 13.0002 7.87584 13.0371 7.88153C13.0965 7.8929 13.0994 7.90428 13.0994 8.18581C13.0965 8.60953 13.0569 8.84841 12.9436 9.13847C12.8246 9.43707 12.7934 9.47119 12.7141 9.41431C12.5668 9.31194 12.5101 9.16691 12.3515 8.48725C12.2637 8.11756 12.1928 7.79337 12.1928 7.76493C12.1928 7.72796 12.2098 7.71943 12.258 7.72796C12.292 7.7365 12.4676 7.77062 12.6461 7.80759Z" fill="white"/>
</g>
<defs>
<clipPath id="clip0_1_12">
<rect width="21" height="21" fill="white"/>
</clipPath>
</defs>
</svg>
